# xmcd
#
# Track frame offsets: 
#        150
#        18528
#        46977
#        79723
#        106466
#        139396
#        160296
#        208913
#        238422
#        286592
#        323754
#
# Disc length: 4782 seconds
#
# Revision: 0
# Processed by: cddbd v1.5.2PL0 Copyright (c) Steve Scherf et al.
# Submitted via: ExactAudioCopy v1.3
#
DISCID=9d12ac0b
DTITLE=Various Artist - Akella Presents - vol. 189 - Blues! Live!  CD
DTITLE=2
DYEAR=2019
DGENRE=Blues
TTITLE0=Sugar Queen And The Straight Blues Band - Hold Your Drank
TTITLE1=Michael Coleman - The Sky Is Crying
TTITLE2=Donnie B and The Hot Damn Band - Meantown Blues
TTITLE3=Tommy Lepson and The Lazy Boys - Tangled and Dark
TTITLE4=Ross Neilsen And The Sufferin' Bastartds - She Ain't You
TTITLE5=Charlie Vitamine - Too Tired for the Blues
TTITLE6=Pristine - No Regret
TTITLE7=Andreas Diehlmann Band - All Along The Watchtower
TTITLE8=Peer Gynt - Little Wing
TTITLE9=Pepe Ahlqvist H.A.R.P. - Honey Hush (Talkin' Woman)
TTITLE10=Hans Theessink - St. James Infirmary
EXTD=
EXTT0=
EXTT1=
EXTT2=
EXTT3=
EXTT4=
EXTT5=
EXTT6=
EXTT7=
EXTT8=
EXTT9=
EXTT10=
PLAYORDER=
